<svg xmlns="http://www.w3.org/2000/svg" width="1000" height="560" viewBox="0 0 1000 560">
<rect width="100%" height="100%" fill="#ffffff"/>
<style>text{font-family:Inter,Arial,sans-serif;fill:#24302b}.grid{stroke:#e5e9e7;stroke-width:1}.axis{stroke:#59635f;stroke-width:1.2}.discard{fill:#bcc5c1;opacity:.65}.keep{fill:#079455;stroke:#067647;stroke-width:1.5}.best{fill:none;stroke:#079455;stroke-width:2.2}</style>
<text x="500.0" y="28" text-anchor="middle" font-size="18" font-weight="600">chess-tactics progress: 2 experiments, 2 kept</text>
<line class="grid" x1="86" y1="486.0" x2="970" y2="486.0"/>
<text x="74" y="490.0" text-anchor="end" font-size="12">0.641</text>
<line class="grid" x1="86" y1="400.4" x2="970" y2="400.4"/>
<text x="74" y="404.4" text-anchor="end" font-size="12">0.705</text>
<line class="grid" x1="86" y1="314.8" x2="970" y2="314.8"/>
<text x="74" y="318.8" text-anchor="end" font-size="12">0.770</text>
<line class="grid" x1="86" y1="229.2" x2="970" y2="229.2"/>
<text x="74" y="233.2" text-anchor="end" font-size="12">0.834</text>
<line class="grid" x1="86" y1="143.6" x2="970" y2="143.6"/>
<text x="74" y="147.6" text-anchor="end" font-size="12">0.899</text>
<line class="grid" x1="86" y1="58.0" x2="970" y2="58.0"/>
<text x="74" y="62.0" text-anchor="end" font-size="12">0.964</text>
<line class="axis" x1="86" y1="58" x2="86" y2="486"/>
<line class="axis" x1="86" y1="486" x2="970" y2="486"/>
<polyline class="best" points="86.0,444.6 528.0,444.6 528.0,113.2 970.0,113.2 970.0,99.4"/>
<circle class="keep" cx="528.0" cy="113.2" r="5"/>
<text x="535.0" y="105.2" font-size="10" transform="rotate(-25 535.0 105.2)">exp_0012 queen-depth5-memo</text>
<circle class="keep" cx="970.0" cy="99.4" r="5"/>
<text x="977.0" y="91.4" font-size="10" transform="rotate(-25 977.0 91.4)">exp_0013 queen-depth5-memo</text>
<text x="528.0" y="540" text-anchor="middle" font-size="13">Experiment</text>
<text x="18" y="272.0" text-anchor="middle" font-size="13" transform="rotate(-90 18 272.0)">tactical_pass_at_1 (higher is better)</text>
<circle class="discard" cx="810" cy="28" r="4"/><text x="820" y="32" font-size="11">Discarded</text>
<circle class="keep" cx="895" cy="28" r="5"/><text x="905" y="32" font-size="11">Kept</text>
</svg>
